PathFileType  4	(X/Y/Z) C:\Users\antoi\Documents\MyRepositories\mobilecap\ResultsAnalysis
DataRate	CameraRate	NumFrames	NumMarkers	Units	OrigDataRate	OrigDataStartFrame	OrigNumFrames
100.0	100.0	4	51	mm	100.0	1	144
Frame#	Time	r_knee			r_shank_antsup			r_ankle			r_calc			r_5meta			r_toe			L_knee			L_shank_antsup			L_ankle			L_calc			L_5meta			L_toe			r_sh2			r_sh3			r_sh4			L_sh2			L_sh3			r_thigh1			r_thigh2			r_thigh3			r_thigh4			r_thigh5			L_thigh1			L_thigh2			L_thigh3			L_thigh4			r.ASIS			r.PSIS			L.ASIS			L.PSIS			C7			R_Shoulder			L_Shoulder			R_Sternum			L_Sternum			R_humerus			R_elbow_med			R_elbow_lat			R_forearm			R_wrist_radius			R_wrist_ulna			L_humerus			L_elbow_med			L_elbow_lat			L_forearm			L_wrist_radius			L_wrist_ulna			R_HJC			L_HJC			R_HJC_reg			L_HJC_reg			
		X1	Y1	Z1	X2	Y2	Z2	X3	Y3	Z3	X4	Y4	Z4	X5	Y5	Z5	X6	Y6	Z6	X7	Y7	Z7	X8	Y8	Z8	X9	Y9	Z9	X10	Y10	Z10	X11	Y11	Z11	X12	Y12	Z12	X13	Y13	Z13	X14	Y14	Z14	X15	Y15	Z15	X16	Y16	Z16	X17	Y17	Z17	X18	Y18	Z18	X19	Y19	Z19	X20	Y20	Z20	X21	Y21	Z21	X22	Y22	Z22	X23	Y23	Z23	X24	Y24	Z24	X25	Y25	Z25	X26	Y26	Z26	X27	Y27	Z27	X28	Y28	Z28	X29	Y29	Z29	X30	Y30	Z30	X31	Y31	Z31	X32	Y32	Z32	X33	Y33	Z33	X34	Y34	Z34	X35	Y35	Z35	X36	Y36	Z36	X37	Y37	Z37	X38	Y38	Z38	X39	Y39	Z39	X40	Y40	Z40	X41	Y41	Z41	X42	Y42	Z42	X43	Y43	Z43	X44	Y44	Z44	X45	Y45	Z45	X46	Y46	Z46	X47	Y47	Z47	X48	Y48	Z48	X49	Y49	Z49	X50	Y50	Z50	X51	Y51	Z51	

1	0.00000000	-22.85046	527.30059	-88.38005	48.06870	458.37185	-95.30210	129.92814	127.52670	-131.97156	81.76978	61.29223	-185.32463	269.32374	100.93472	-87.42129	310.23889	157.19592	-145.52672	-386.42321	520.37758	-384.63048	-419.34100	431.46512	-400.74743	-585.09133	144.54374	-317.13312	-676.10093	108.50149	-258.20470	-496.67781	45.00793	-349.67933	-430.48477	62.84901	-290.32200	73.78015	350.18700	-77.00600	-20.61420	446.34118	-61.16843	-6.83484	331.04738	-62.70598	-499.25478	475.56249	-387.44047	-543.35966	362.32759	-372.18068	-94.64121	846.72400	-70.41788	-46.67730	749.54260	-72.50176	-85.04278	703.39176	-41.24394	-193.86331	796.22156	-53.09307	-138.11398	694.87615	-59.43422	-229.62237	791.61196	-415.52370	-253.13274	654.55066	-398.47795	-338.00692	808.72401	-421.15639	-366.24524	675.16431	-410.99345	-142.74527	1033.44821	-106.72223	-331.78580	1027.46549	-156.67022	-168.50063	1033.43071	-362.72052	-343.69474	1040.11393	-263.44801	-241.83602	1581.43744	-262.31748	-190.11241	1518.85772	-84.12861	-190.35476	1494.74287	-424.00543	-135.39526	1478.24180	-221.10764	-134.33199	1471.27959	-276.51648	-231.40238	1363.15637	-14.37810	-362.51354	1193.95118	-73.34376	-357.54393	1208.76547	9.67577	-352.65075	1036.65904	42.96852	-339.89035	938.55490	38.63051	-379.34093	957.06810	58.32338	-171.84605	1386.69521	-511.90202	-131.60612	1142.32562	-511.31298	-116.43108	1180.76159	-583.76129	-43.28263	1160.78812	-604.07395	106.83958	1062.68670	-620.95663	80.82245	1037.12073	-641.16164	-214.14922	909.80506	-123.44427	-242.96771	919.46040	-328.16013	-193.38290	931.27708	-149.19429	-212.07616	951.13165	-316.80158	
2	0.01000000	-12.52833	525.59307	-89.33842	58.24048	456.50269	-97.28607	137.03786	125.60044	-133.86927	85.55329	62.96172	-185.78672	275.41477	94.54627	-91.36245	317.66354	148.86641	-150.27649	-371.87064	521.13469	-384.39487	-406.54704	432.84498	-400.80183	-579.91659	150.48076	-318.17775	-671.70598	117.73439	-258.86263	-495.15962	45.68901	-349.87920	-428.85710	62.00581	-290.62697	84.05806	348.24787	-79.10942	-10.15348	444.60568	-62.18173	3.47838	329.28014	-64.02341	-485.21445	479.03974	-387.06828	-532.45491	367.06034	-371.99120	-76.89192	846.12974	-71.12396	-31.35960	747.60732	-73.46499	-71.31325	702.55106	-42.49081	-177.28640	797.87498	-52.80292	-124.59647	695.35682	-60.22681	-214.66172	791.78381	-414.62453	-238.62831	654.43482	-398.17072	-323.08660	809.05637	-420.14335	-351.51724	675.47720	-410.15308	-125.32997	1034.75619	-107.07775	-314.15306	1028.97615	-154.46842	-152.90699	1033.57750	-362.49969	-327.34553	1040.88841	-261.45710	-227.91733	1582.63074	-260.82558	-175.68824	1519.84290	-82.87402	-176.96805	1496.43444	-422.95698	-120.79983	1479.86016	-220.08851	-120.44453	1473.01326	-275.74686	-216.35298	1363.77996	-13.46796	-346.94149	1194.36714	-73.09173	-341.97779	1208.92616	9.99465	-338.01413	1036.78648	42.77870	-325.80973	938.60396	38.17739	-365.13440	957.27584	57.99872	-159.12947	1388.09244	-511.03598	-119.23472	1143.59790	-510.41252	-104.74653	1181.94757	-583.09454	-31.37008	1162.09328	-603.69420	119.04217	1064.71159	-620.82415	92.98388	1038.97733	-640.92965	-196.61003	911.18756	-122.14013	-227.43541	919.86164	-326.58564	-176.10724	932.88565	-148.17011	-196.71631	951.51673	-315.42461	
3	0.02000000	-2.03640	524.14638	-90.02617	68.40512	454.78068	-99.07531	143.88745	123.70022	-135.45862	89.21241	64.59453	-186.09919	281.19165	88.10649	-94.94005	324.76005	140.60429	-154.55082	-356.70220	521.84085	-384.24320	-393.25954	434.30393	-400.94333	-574.28873	156.70516	-319.16177	-666.79917	127.46762	-259.43070	-493.54757	46.58520	-350.03255	-427.07924	61.22370	-290.88446	94.28795	346.46498	-80.93130	0.42380	443.13228	-62.91602	13.77039	327.76024	-64.92983	-470.58920	482.61405	-386.67956	-521.00618	371.96065	-371.73849	-59.32592	845.72408	-71.77288	-16.15602	745.90800	-74.36176	-57.45658	701.90380	-43.43567	-160.80727	799.67640	-52.37992	-111.05280	696.04585	-60.69519	-199.37452	792.02692	-413.69597	-223.64362	654.37517	-397.84095	-307.83630	809.35362	-419.12664	-336.31199	675.72394	-409.33778	-107.92913	1036.18387	-107.36740	-296.60653	1030.66053	-152.33882	-137.24344	1033.83614	-362.20424	-310.95569	1041.77698	-259.52808	-213.94867	1583.92672	-259.35393	-161.12785	1521.00120	-81.66084	-163.58013	1498.25420	-421.92330	-106.15516	1481.60995	-219.12021	-106.46891	1474.87264	-275.00690	-201.13011	1364.60443	-12.55110	-331.18487	1194.97386	-72.77893	-326.23049	1209.28872	10.37479	-323.09974	1037.12218	42.68468	-311.42629	938.85635	37.81762	-350.61032	957.68908	57.78733	-146.48497	1389.57338	-510.16652	-107.11812	1144.92400	-509.40088	-93.27391	1183.13650	-582.32891	-19.72342	1163.35387	-603.22724	130.93458	1066.59702	-620.59069	104.84173	1040.69694	-640.56117	-179.13938	912.71015	-120.79965	-211.84898	920.38045	-324.98988	-158.95281	934.68648	-147.06657	-181.28181	952.00840	-313.98535	
4	0.03000000	8.75604	523.16809	-90.22691	78.54378	453.31372	-100.46301	150.25117	121.85835	-136.50269	92.63142	66.16075	-186.16983	286.38011	81.61422	-97.83902	331.26551	132.48980	-157.94067	-340.38981	522.43308	-384.25837	-379.05009	435.89601	-401.25333	-567.78727	163.44254	-320.04377	-660.90168	138.13045	-259.84126	-491.75644	47.89458	-350.09699	-425.04011	60.55430	-291.06171	104.39157	344.94630	-82.22247	11.18061	442.11787	-63.13700	23.97968	326.66954	-65.09512	-454.86923	486.34909	-386.26213	-508.53693	377.15443	-371.37980	-42.11030	845.68417	-72.31524	-1.14100	744.66584	-75.15241	-43.35541	701.64713	-43.84791	-144.49036	801.74917	-51.68671	-97.42487	697.11475	-60.56676	-183.48720	792.39514	-412.73042	-207.76041	654.41767	-397.49489	-291.98841	809.57107	-418.10934	-320.22954	675.83492	-408.57905	-90.57362	1037.82286	-107.52649	-279.22391	1032.63906	-150.35052	-121.46107	1034.28910	-361.77252	-294.50770	1042.86073	-257.72343	-199.89502	1585.40312	-257.91878	-146.31566	1522.46270	-80.52287	-150.19248	1500.29734	-420.91729	-91.42531	1483.58239	-218.24543	-92.34150	1476.94389	-274.31832	-185.59049	1365.78132	-11.62242	-315.10430	1195.92040	-72.34785	-310.15562	1210.01018	10.87316	-307.67609	1037.82558	42.76836	-296.47773	939.47086	37.63130	-335.50247	958.46337	57.78631	-133.96563	1391.20139	-509.28753	-95.46212	1146.34057	-508.19062	-82.18839	1184.32725	-581.38635	-8.55449	1164.52825	-602.60043	142.26583	1068.22516	-620.17395	116.14625	1042.16323	-639.94834	-161.80602	914.47601	-119.39473	-196.16569	921.10177	-323.35960	-142.01276	936.81320	-145.81873	-165.71959	952.68462	-312.43556	
